<svg width="68" height="81" viewBox="0 0 68 81" fill="none" xmlns="http://www.w3.org/2000/svg">
<path d="M8.32031 80.0787L50.45 80.5V70H14.45C12.2408 70 10.45 68.2091 10.45 66V14C10.45 11.7909 12.2408 10 14.45 10H50.45V0L7.92072 0.421081C3.51394 0.464713 -0.0276331 4.0641 8.33273e-05 8.47101L0.400451 72.1294C0.427918 76.4968 3.95305 80.035 8.32031 80.0787Z" fill="#2B6651"/>
<path d="M20.45 45.5V35H40.95V27.4741C40.95 24.2793 44.5105 22.3737 47.1687 24.1459L65.9576 36.6718C68.3326 38.2551 68.3326 41.7449 65.9576 43.3282L47.1688 55.8541C44.5105 57.6263 40.95 55.7207 40.95 52.5259V45.5H20.45Z" fill="#2B6651"/>
</svg>
